# xmcd
#
# Track frame offsets:
#	150
#	12565
#	28256
#	48991
#	63838
#	81886
#	97401
#	116096
#	134590
#	146307
#	163075
#	176290
#	194938
#	211744
#
# Disc length: 2990 seconds
#
# Revision: 1
# Processed by: cddbd v1.5.2PL0 Copyright (c) Steve Scherf et al.
# Submitted via: EasyCDDAExtractor 12.0.4.1
#
DISCID=d00bac0e
DTITLE=Various Artist - The best African songs
DYEAR=1900
DGENRE=Neger folk
TTITLE0=Ted Kalanda - Jambo Jambo
TTITLE1=Chui Rashid and John Isungu - Pole Pole
TTITLE2=Chui Rashid - Nakupenda Wewe
TTITLE3=Dala Hamis - Music in Africa
TTITLE4=Waiyaki Swaleh and Dala Hamis - Coconut
TTITLE5=John Rashid and Waiyiki Swaleh - Kenya Safari
TTITLE6=Mahmud Sirja and Dala Hamis - Mombasa
TTITLE7=Chui Rashid and John Isungu - Lala Salama
TTITLE8=Nabil Salsui - Karibuni Kenya
TTITLE9=John Isungu - Kilimanjaro
TTITLE10=Fadhili William - Malaika
TTITLE11=Safari Sound - Ahsante Sana
TTITLE12=Daudi Kabaka - Pole Musa
TTITLE13=Jean Bosco Mwenda - Mama Sofia
EXTD=
EXTT0=
EXTT1=
EXTT2=
EXTT3=
EXTT4=
EXTT5=
EXTT6=
EXTT7=
EXTT8=
EXTT9=
EXTT10=
EXTT11=
EXTT12=
EXTT13=
PLAYORDER=
